<svg xmlns="http://www.w3.org/2000/svg" viewBox="0 0 1850.14 1993"><defs><style>.cls-1{fill:#fecf59;}.cls-2{fill:#292d39;}.cls-3{fill:#74e164;}.cls-4{fill:#71c361;}.cls-5{fill:#61b951;}.cls-6{fill:#fff;}.cls-7{fill:none;stroke:#fff;stroke-miterlimit:10;stroke-width:75px;}</style></defs><title>Asset 1</title><g id="Layer_2" data-name="Layer 2"><g id="Layer_1-2" data-name="Layer 1"><circle class="cls-1" cx="925.07" cy="925.07" r="925.07"/><path class="cls-2" d="M334.18,1047c0,.15,0,.3,0,.45,0,327.55,265.53,593.08,593.08,593.08s593.08-265.53,593.08-593.08c0-.15,0-.3,0-.45Z"/><path class="cls-3" d="M1239.67,1172.28H611a48.69,48.69,0,0,0-48.69,48.7v408.57h0v.42c0,200.49,162.53,363,363,363s363-162.54,363-363v-.42h0V1221A48.7,48.7,0,0,0,1239.67,1172.28Z"/><path class="cls-4" d="M1288.37,1298v331.58h0V1221a48.7,48.7,0,0,0-48.7-48.7H611a48.69,48.69,0,0,0-48.69,48.7v408.57h0V1298"/><path class="cls-5" d="M1247.26,1208.28h-4a11.27,11.27,0,0,0-11.27,11.26v402.72h0v.36c0,169.36-137.29,306.65-306.65,306.65S618.69,1792,618.69,1622.62c0-.12,0-.24,0-.36h0V1219.54a11.26,11.26,0,0,0-11.26-11.26h0a11.27,11.27,0,0,0-11.27,11.26v405.89h0c0,.13,0,.26,0,.39,0,182.9,148.28,331.18,331.18,331.18s331.18-148.28,331.18-331.18v-.39h0V1219.54A11.26,11.26,0,0,0,1247.26,1208.28Z"/><polygon class="cls-6" points="994.69 1526.87 895.86 1478.26 990.1 1413.48 1084.35 1348.71 1088.94 1462.1 1093.53 1575.48 994.69 1526.87"/><polyline class="cls-7" points="760.7 1801.56 852.93 1621.7 901.08 1707.36 1014.56 1489.71"/><path d="M972,1453.5a1.5,1.5,0,0,0,0-3,1.5,1.5,0,0,0,0,3Z"/><polygon class="cls-2" points="702.91 469.72 530.53 297.34 530.18 297.69 528.99 296.5 356.61 468.88 419.61 531.87 528.43 423.05 639.01 533.63 702.91 469.72"/><rect class="cls-2" x="267.17" y="532.34" width="89.19" height="89.19" transform="translate(-316.64 389.43) rotate(-45)"/><rect class="cls-2" x="484.4" y="532.34" width="89.19" height="89.19" transform="translate(-253.01 543.03) rotate(-45)"/><rect class="cls-2" x="701.63" y="532.34" width="89.19" height="89.19" transform="translate(-189.39 696.64) rotate(-45)"/><polygon class="cls-2" points="1499.91 458.72 1327.53 286.34 1327.18 286.69 1325.99 285.5 1153.61 457.88 1216.61 520.87 1325.43 412.05 1436.01 522.63 1499.91 458.72"/><rect class="cls-2" x="1064.17" y="521.34" width="89.19" height="89.19" transform="translate(-75.42 949.77) rotate(-45)"/><rect class="cls-2" x="1281.4" y="521.34" width="89.19" height="89.19" transform="translate(-11.8 1103.38) rotate(-45)"/><rect class="cls-2" x="1498.63" y="521.34" width="89.19" height="89.19" transform="translate(51.82 1256.98) rotate(-45)"/></g></g></svg>